<svg width="24" height="24" viewBox="0 0 24 24" fill="none" xmlns="http://www.w3.org/2000/svg">
<mask id="path-1-outside-1_226_853" maskUnits="userSpaceOnUse" x="4" y="2" width="16" height="20" fill="black">
<rect fill="white" x="4" y="2" width="16" height="20"/>
<path d="M6.616 21C6.15533 21 5.771 20.846 5.463 20.538C5.155 20.23 5.00067 19.8457 5 19.385V8.615C5 8.155 5.15433 7.771 5.463 7.463C5.77167 7.155 6.156 7.00067 6.616 7H8.5V6.5C8.5 5.528 8.84033 4.70167 9.521 4.021C10.2017 3.34033 11.028 3 12 3C12.972 3 13.7983 3.34033 14.479 4.021C15.1597 4.70167 15.5 5.528 15.5 6.5V7H17.385C17.845 7 18.229 7.15433 18.537 7.463C18.845 7.77167 18.9993 8.156 19 8.616V19.385C19 19.845 18.8457 20.2293 18.537 20.538C18.2283 20.8467 17.8443 21.0007 17.385 21H6.616ZM6.616 20H17.385C17.5383 20 17.6793 19.936 17.808 19.808C17.9367 19.68 18.0007 19.5387 18 19.384V8.616C18 8.462 17.936 8.32067 17.808 8.192C17.68 8.06333 17.5387 7.99933 17.384 8H15.5V10.5C15.5 10.6427 15.4523 10.7617 15.357 10.857C15.2617 10.9523 15.1427 11 15 11C14.8573 11 14.7383 10.9523 14.643 10.857C14.5477 10.7617 14.5 10.6427 14.5 10.5V8H9.5V10.5C9.5 10.6427 9.45233 10.7617 9.357 10.857C9.26167 10.9523 9.14267 11 9 11C8.85733 11 8.73833 10.9523 8.643 10.857C8.54767 10.7617 8.5 10.6427 8.5 10.5V8H6.616C6.462 8 6.32067 8.064 6.192 8.192C6.06333 8.32 5.99933 8.46133 6 8.616V19.385C6 19.5383 6.064 19.6793 6.192 19.808C6.32 19.9367 6.461 20.0007 6.615 20M9.5 7H14.5V6.5C14.5 5.796 14.2593 5.20333 13.778 4.722C13.2967 4.24067 12.704 4 12 4C11.296 4 10.7033 4.24067 10.222 4.722C9.74067 5.20333 9.5 5.796 9.5 6.5V7Z"/>
</mask>
<path d="M6.616 21C6.15533 21 5.771 20.846 5.463 20.538C5.155 20.23 5.00067 19.8457 5 19.385V8.615C5 8.155 5.15433 7.771 5.463 7.463C5.77167 7.155 6.156 7.00067 6.616 7H8.5V6.5C8.5 5.528 8.84033 4.70167 9.521 4.021C10.2017 3.34033 11.028 3 12 3C12.972 3 13.7983 3.34033 14.479 4.021C15.1597 4.70167 15.5 5.528 15.5 6.5V7H17.385C17.845 7 18.229 7.15433 18.537 7.463C18.845 7.77167 18.9993 8.156 19 8.616V19.385C19 19.845 18.8457 20.2293 18.537 20.538C18.2283 20.8467 17.8443 21.0007 17.385 21H6.616ZM6.616 20H17.385C17.5383 20 17.6793 19.936 17.808 19.808C17.9367 19.68 18.0007 19.5387 18 19.384V8.616C18 8.462 17.936 8.32067 17.808 8.192C17.68 8.06333 17.5387 7.99933 17.384 8H15.5V10.5C15.5 10.6427 15.4523 10.7617 15.357 10.857C15.2617 10.9523 15.1427 11 15 11C14.8573 11 14.7383 10.9523 14.643 10.857C14.5477 10.7617 14.5 10.6427 14.5 10.5V8H9.5V10.5C9.5 10.6427 9.45233 10.7617 9.357 10.857C9.26167 10.9523 9.14267 11 9 11C8.85733 11 8.73833 10.9523 8.643 10.857C8.54767 10.7617 8.5 10.6427 8.5 10.5V8H6.616C6.462 8 6.32067 8.064 6.192 8.192C6.06333 8.32 5.99933 8.46133 6 8.616V19.385C6 19.5383 6.064 19.6793 6.192 19.808C6.32 19.9367 6.461 20.0007 6.615 20M9.5 7H14.5V6.5C14.5 5.796 14.2593 5.20333 13.778 4.722C13.2967 4.24067 12.704 4 12 4C11.296 4 10.7033 4.24067 10.222 4.722C9.74067 5.20333 9.5 5.796 9.5 6.5V7Z" fill="black"/>
<path d="M6 20H6.15V8H6H5.85V20H6ZM5 19.385H4.7L4.7 19.3854L5 19.385ZM6.616 7V6.7L6.61557 6.7L6.616 7ZM8.5 7V7.3H8.8V7H8.5ZM15.5 7H15.2V7.3H15.5V7ZM19 8.616H19.3L19.3 8.61557L19 8.616ZM17.385 21L17.3854 20.7H17.385V21ZM18 19.384H17.7L17.7 19.3853L18 19.384ZM17.384 8V8.3L17.3853 8.3L17.384 8ZM15.5 8V7.7H15.2V8H15.5ZM14.5 8H14.8V7.7H14.5V8ZM9.5 8V7.7H9.2V8H9.5ZM8.5 8H8.8V7.7H8.5V8ZM6 8.616H6.3L6.3 8.61471L6 8.616ZM9.5 7H9.2V7.3H9.5V7ZM14.5 7V7.3H14.8V7H14.5ZM12 4V3.7V4ZM6.616 21V20.7C6.22981 20.7 5.92337 20.5741 5.67513 20.3259L5.463 20.538L5.25087 20.7501C5.61863 21.1179 6.08086 21.3 6.616 21.3V21ZM5.463 20.538L5.67513 20.3259C5.42678 20.0775 5.30056 19.7709 5.3 19.3846L5 19.385L4.7 19.3854C4.70077 19.9204 4.88322 20.3825 5.25087 20.7501L5.463 20.538ZM5 19.385H5.3V8.615H5H4.7V19.385H5ZM5 8.615H5.3C5.3 8.22981 5.42599 7.92374 5.6749 7.67536L5.463 7.463L5.2511 7.25064C4.88268 7.61826 4.7 8.08019 4.7 8.615H5ZM5.463 7.463L5.6749 7.67536C5.9241 7.4267 6.2309 7.30056 6.61643 7.3L6.616 7L6.61557 6.7C6.0811 6.70077 5.61923 6.8833 5.2511 7.25064L5.463 7.463ZM6.616 7V7.3H8.5V7V6.7H6.616V7ZM8.5 7H8.8V6.5H8.5H8.2V7H8.5ZM8.5 6.5H8.8C8.8 5.60669 9.10934 4.85692 9.73313 4.23313L9.521 4.021L9.30887 3.80887C8.57133 4.54641 8.2 5.44931 8.2 6.5H8.5ZM9.521 4.021L9.73313 4.23313C10.3569 3.60934 11.1067 3.3 12 3.3V3V2.7C10.9493 2.7 10.0464 3.07133 9.30887 3.80887L9.521 4.021ZM12 3V3.3C12.8933 3.3 13.6431 3.60934 14.2669 4.23313L14.479 4.021L14.6911 3.80887C13.9536 3.07133 13.0507 2.7 12 2.7V3ZM14.479 4.021L14.2669 4.23313C14.8907 4.85692 15.2 5.60669 15.2 6.5H15.5H15.8C15.8 5.44931 15.4287 4.54641 14.6911 3.80887L14.479 4.021ZM15.5 6.5H15.2V7H15.5H15.8V6.5H15.5ZM15.5 7V7.3H17.385V7V6.7H15.5V7ZM17.385 7V7.3C17.7702 7.3 18.0763 7.42599 18.3246 7.6749L18.537 7.463L18.7494 7.2511C18.3817 6.88268 17.9198 6.7 17.385 6.7V7ZM18.537 7.463L18.3246 7.6749C18.5733 7.9241 18.6994 8.2309 18.7 8.61644L19 8.616L19.3 8.61557C19.2992 8.0811 19.1167 7.61923 18.7494 7.2511L18.537 7.463ZM19 8.616H18.7V19.385H19H19.3V8.616H19ZM19 19.385H18.7C18.7 19.7702 18.574 20.0767 18.3249 20.3259L18.537 20.538L18.7491 20.7501C19.1173 20.3819 19.3 19.9198 19.3 19.385H19ZM18.537 20.538L18.3249 20.3259C18.0758 20.575 17.7697 20.7006 17.3854 20.7L17.385 21L17.3846 21.3C17.919 21.3008 18.3809 21.1184 18.7491 20.7501L18.537 20.538ZM17.385 21V20.7H6.616V21V21.3H17.385V21ZM6.616 20V20.3H17.385V20V19.7H6.616V20ZM17.385 20V20.3C17.632 20.3 17.8458 20.1936 18.0196 20.0207L17.808 19.808L17.5964 19.5953C17.5129 19.6784 17.4447 19.7 17.385 19.7V20ZM17.808 19.808L18.0196 20.0207C18.1945 19.8467 18.3011 19.6315 18.3 19.3827L18 19.384L17.7 19.3853C17.7003 19.4458 17.6788 19.5133 17.5964 19.5953L17.808 19.808ZM18 19.384H18.3V8.616H18H17.7V19.384H18ZM18 8.616H18.3C18.3 8.36868 18.1939 8.15451 18.0207 7.98042L17.808 8.192L17.5953 8.40358C17.6781 8.48682 17.7 8.55532 17.7 8.616H18ZM17.808 8.192L18.0207 7.98042C17.8467 7.8055 17.6315 7.69893 17.3827 7.7L17.384 8L17.3853 8.3C17.4458 8.29974 17.5133 8.32117 17.5953 8.40358L17.808 8.192ZM17.384 8V7.7H15.5V8V8.3H17.384V8ZM15.5 8H15.2V10.5H15.5H15.8V8H15.5ZM15.5 10.5H15.2C15.2 10.5682 15.1804 10.6093 15.1449 10.6449L15.357 10.857L15.5691 11.0691C15.7243 10.914 15.8 10.7171 15.8 10.5H15.5ZM15.357 10.857L15.1449 10.6449C15.1093 10.6804 15.0682 10.7 15 10.7V11V11.3C15.2171 11.3 15.414 11.2243 15.5691 11.0691L15.357 10.857ZM15 11V10.7C14.9318 10.7 14.8907 10.6804 14.8551 10.6449L14.643 10.857L14.4309 11.0691C14.586 11.2243 14.7829 11.3 15 11.3V11ZM14.643 10.857L14.8551 10.6449C14.8196 10.6093 14.8 10.5682 14.8 10.5H14.5H14.2C14.2 10.7171 14.2757 10.914 14.4309 11.0691L14.643 10.857ZM14.5 10.5H14.8V8H14.5H14.2V10.5H14.5ZM14.5 8V7.7H9.5V8V8.3H14.5V8ZM9.5 8H9.2V10.5H9.5H9.8V8H9.5ZM9.5 10.5H9.2C9.2 10.5682 9.18041 10.6093 9.14487 10.6449L9.357 10.857L9.56913 11.0691C9.72426 10.914 9.8 10.7171 9.8 10.5H9.5ZM9.357 10.857L9.14487 10.6449C9.10933 10.6804 9.06824 10.7 9 10.7V11V11.3C9.21709 11.3 9.414 11.2243 9.56913 11.0691L9.357 10.857ZM9 11V10.7C8.93176 10.7 8.89067 10.6804 8.85513 10.6449L8.643 10.857L8.43087 11.0691C8.586 11.2243 8.78291 11.3 9 11.3V11ZM8.643 10.857L8.85513 10.6449C8.81959 10.6093 8.8 10.5682 8.8 10.5H8.5H8.2C8.2 10.7171 8.27574 10.914 8.43087 11.0691L8.643 10.857ZM8.5 10.5H8.8V8H8.5H8.2V10.5H8.5ZM8.5 8V7.7H6.616V8V8.3H8.5V8ZM6.616 8V7.7C6.36868 7.7 6.15451 7.80613 5.98042 7.97932L6.192 8.192L6.40358 8.40468C6.48682 8.32187 6.55532 8.3 6.616 8.3V8ZM6.192 8.192L5.98042 7.97932C5.8055 8.15333 5.69893 8.36846 5.7 8.61729L6 8.616L6.3 8.61471C6.29974 8.55421 6.32117 8.48667 6.40358 8.40468L6.192 8.192ZM6 8.616H5.7V19.385H6H6.3V8.616H6ZM6 19.385H5.7C5.7 19.632 5.80642 19.8458 5.97932 20.0196L6.192 19.808L6.40468 19.5964C6.32158 19.5129 6.3 19.4447 6.3 19.385H6ZM6.192 19.808L5.97932 20.0196C6.15304 20.1942 6.36777 20.3011 6.6163 20.3L6.615 20L6.6137 19.7C6.55423 19.7003 6.48696 19.6791 6.40468 19.5964L6.192 19.808ZM9.5 7V7.3H14.5V7V6.7H9.5V7ZM14.5 7H14.8V6.5H14.5H14.2V7H14.5ZM14.5 6.5H14.8C14.8 5.71948 14.5298 5.04958 13.9901 4.50987L13.778 4.722L13.5659 4.93413C13.9888 5.35709 14.2 5.87252 14.2 6.5H14.5ZM13.778 4.722L13.9901 4.50987C13.4504 3.97016 12.7805 3.7 12 3.7V4V4.3C12.6275 4.3 13.1429 4.51117 13.5659 4.93413L13.778 4.722ZM12 4V3.7C11.2195 3.7 10.5496 3.97016 10.0099 4.50987L10.222 4.722L10.4341 4.93413C10.8571 4.51117 11.3725 4.3 12 4.3V4ZM10.222 4.722L10.0099 4.50987C9.47016 5.04958 9.2 5.71948 9.2 6.5H9.5H9.8C9.8 5.87252 10.0112 5.35709 10.4341 4.93413L10.222 4.722ZM9.5 6.5H9.2V7H9.5H9.8V6.5H9.5Z" fill="black" mask="url(#path-1-outside-1_226_853)"/>
<circle cx="18.5" cy="18.5" r="4" fill="#E30000"/>
</svg>
